<svg id="Слой_1" data-name="Слой 1" xmlns="http://www.w3.org/2000/svg" viewBox="0 0 150 190"><defs><style>.cls-1,.cls-2{fill-rule:evenodd;}.cls-2{fill:red;}</style></defs><title>Монтажная область 25</title><path class="cls-1" d="M80.34,147.45C71.43,117.24,61.81,118,58.56,120l-.5,15.86-9.88-.34c-.34-8-.71-17.67-.71-21.11,0-9.49,4.47-18.64,4.47-18.64,0-28.8-7.64-26.43-8.28-55.15l44.8-.34-3.57,63.07s13.7,24.4,20,29.25c8.47,0,16.25,7,16,15.05Zm-22.43-6.7-.22,7.08-9,0s-.12-2.63-.28-6.42Z"/><path class="cls-2" d="M127.16,72.72l-43.93,43.1,43.84,45.3L121,168.19,76.29,122.64,31,167.07l-6.49-7.94,44.93-43.47L26.63,72l7.94-6.49,41.91,43.3,43.61-42.2Z"/></svg>