<svg id="Слой_1" data-name="Слой 1" xmlns="http://www.w3.org/2000/svg" viewBox="0 0 150 190"><defs><style>.cls-1{fill-rule:evenodd;}</style></defs><title>Монтажная область 36</title><path class="cls-1" d="M77,145.45q-5.16-4.15-9.83-8l-8.24,7c-18.3,15.47-38.9-8.65-20.76-24.28l5.45-4.7c-6.55-7.79-10.24-15.3-10.24-23.49,0-15,11.14-24.81,22.56-24.81,7.7,0,16.4,2.73,21.79,8.11,5.89-5.89,13.34-8.06,20.83-8.06,11.09,0,21.77,9.84,21.78,25.3C120.31,111,104.37,123.2,77,145.45Zm1.6-26.06c3.68.3,4.16-5.43.39-5.73A2.87,2.87,0,1,0,78.57,119.39ZM57.69,112a2.87,2.87,0,1,0-.39,5.73C61,118,61.46,112.27,57.69,112Zm-10.81,7.14-5.36,4.69C28,135.43,42.06,152,55.74,140.41l7.58-6.14A197.24,197.24,0,0,1,46.88,119.11Zm20.21,10c3.69.29,4.17-5.43.39-5.73A2.87,2.87,0,1,0,67.09,129.11Zm.84-10.56c3.69.29,4.17-5.44.39-5.74A2.88,2.88,0,1,0,67.93,118.55Zm1.24-16.37a2.87,2.87,0,1,0-.39,5.73C72.46,108.2,72.94,102.48,69.17,102.18Zm11-12.74-7,6.35,15.76,18.4,7.31-5.93C112.27,94.61,96,76,80.2,89.44Z"/></svg>