<svg id="Слой_1" data-name="Слой 1" xmlns="http://www.w3.org/2000/svg" viewBox="0 0 150 190"><defs><style>.cls-1{fill-rule:evenodd;}</style></defs><path class="cls-1" d="M114.22,120.34l-14.25.27-8.14-19.1-2.1-.23L83,125l-7.38-14.27-1.52-.37-5.57,11-19.72.55c-2.8-6.89-2.11-13.47.9-18.18C45,92.79,47.75,83.6,53.55,78.28L51,69.18,58.7,66l3,7.86a17.84,17.84,0,0,1,3.18-.49l2.46-8.14,7.49,1.19L71.79,83.13c-4,1.24-8.19,8.34-1.71,13.22a15.62,15.62,0,0,1,7.25-11.79c.43-9.17,1.86-20.59,6.12-26.12,2.88-3.75,19.64,1.05,15.66,7.93-2.93,5.07-4,11.19-4.28,16.47C103.65,85.63,113.53,94.8,114.22,120.34Zm-19-55.18c.64-2.36-8.53-4.8-9.15-2.49C85.43,65.19,94.62,67.53,95.25,65.16ZM26,92.5c-2.87-3.76,6.1-18.7,11.72-13.08a29.37,29.37,0,0,0,6.35,4.74c-2.26,8-.6,16.29.09,19.12C36.85,100.57,29.38,96.91,26,92.5ZM71.85,126l2.74-7,8.2,18.49,2.32-.9,6.08-20.69,5,10.59,17.89.08a66,66,0,0,1-5.19,20.65c-28.76,5.62-49.06-5.84-58-21Z"/></svg>