<svg id="Слой_1" data-name="Слой 1" xmlns="http://www.w3.org/2000/svg" viewBox="0 0 150 190"><defs><style>.cls-1{fill-rule:evenodd;}</style></defs><title>Монтажная область 45</title><path class="cls-1" d="M102.67,144.48l.59-5.44-2.09-.92c-11.57,14.95-39.34,14.58-52.3.63l-2.5.42.45,5.61c-12.1,0-18-4.92-18-16.73l8.71-1.73,7.89-7.71c6.83,14.64,29.07,17.71,29.07,17.71s22.17-3.7,30.7-18l5.36,7.3,10.69,2C121.21,141.16,116.53,144.48,102.67,144.48ZM96,123a68.72,68.72,0,0,1-21.51,8.12s-8.15-.78-21.4-8.82l2.21-6.89s-6.74-6.82-8.38-21.87l6.29-1.61c1,9.3,6,15.35,12.25,18.21a70.35,70.35,0,0,1-3.61-20.42l7.53-1.93a94.59,94.59,0,0,0,2.22,24.11,21,21,0,0,0,5.71,0A95.44,95.44,0,0,0,79.36,89l7.49,1.37A70.73,70.73,0,0,1,83.46,110c6-3,10.58-9.09,10.76-18.29l5.91,1.08c-1.38,16.4-7.32,22.63-7.32,22.63L95,122.83ZM74.43,82.68,44.07,88,42,83.74,47.35,79c2.72-12.5,11.95-19.62,22-21.29l2.34-6.09,4-.11,2.87,6.19c10.11,1.69,19.21,9,21.37,22.06L105.49,85l-1.91,3.86Z"/></svg>