<svg id="Слой_1" data-name="Слой 1" xmlns="http://www.w3.org/2000/svg" viewBox="0 0 150 190"><defs><style>.cls-1{fill-rule:evenodd;}</style></defs><title>Монтажная область 46</title><path class="cls-1" d="M81.61,71.32,72.29,71V68.11l-4-.83V58.56H86v9.22l-4,.5ZM38.12,78.41l9.76-9,5.53,7.5-8.78,7.79ZM76.66,74.5c48.53,0,48.22,74.14.83,74.14C25.6,148.64,28,74.5,76.66,74.5Zm.63,68.32c39.95,0,40.21-62.5-.7-62.5C35.52,80.32,33.54,142.82,77.29,142.82ZM93.87,93.18,96.32,95s-13.83,18.93-15.15,20.57c-5.64,7-14.7-2.14-7.85-7.78C74.6,106.73,93.87,93.18,93.87,93.18Zm-44,15.6,9.05.46v6l-8.59.61ZM81,128.73l.46,9-7-.46.61-8.58Zm21.37-13.81-8.58-.61v-6l9-.46ZM74.11,95l-.61-8.58,7-.46-.46,9Z"/></svg>