<svg id="Слой_1" data-name="Слой 1" xmlns="http://www.w3.org/2000/svg" viewBox="0 0 150 190"><defs><style>.cls-1{fill-rule:evenodd;}</style></defs><title>Монтажная область 30</title><path class="cls-1" d="M118.1,77.55c-.95,7-4.52,40.14-6,52.73,1.94,13.66-1.37,18.85-18.74,16.78-10.37.27-16.63,1-31.71,1.43-14.7.38-13.61-12.81-5.5-16.92,6-3,10.87-4.81,15.49-6.84s6.65-6.83,5.9-12.54c-1.14-8.66-2.57-27-3.75-34.4C71.28,62.07,120.23,61.82,118.1,77.55ZM96.59,84c20.15,0,20.28-12.31-.35-12.31S74.53,84,96.59,84Zm-46,44.87c-6.38,3.24-7.09,8.88-5.35,13.6h-.14c-14.71,0-13.61-12.8-5.49-16.92,6-3,10.86-4.81,15.48-6.84s6.65-6.82,5.9-12.54c-1.14-8.66-4.89-35.82-4.89-35.82L66.52,69c1.67,11.52,4.92,34,5.79,40.28.8,5.7-.53,8.75-5,11S56.53,125.8,50.56,128.82Z"/></svg>