<svg id="Слой_1" data-name="Слой 1" xmlns="http://www.w3.org/2000/svg" viewBox="0 0 150 190"><defs><style>.cls-1{fill-rule:evenodd;}</style></defs><title>Монтажная область 11</title><path class="cls-1" d="M120.12,145c-6.1,6.36-15.55-.75-13.75-7.35l-10.89-9.13-14,7-2.94-4.74,6.32-6.48-9.25-9.17-8.46,8.49,3.27,5.81C62.19,137.62,51.88,132,51.88,132L41.41,141.2l1.48,3c-9.23,9.08-21-3-12-11.89l2.9,1.33L43,123.06s-5.13-11.38,2.31-18.7L51,107.68l8.92-8.09L35.27,75.19l-1.7-15,15.11.62L74.84,86.06,99.5,63.7l17-2.7L114,76.72l-23.91,24,9.22,8.89,5.31-5.44,4.88,3-6.67,12.69,10,11.91C119.65,130.34,125.77,139.11,120.12,145ZM107.63,76.18l3.21-9.49L101,69.47S60.59,108,56,112.19s2.34,11.87,7.53,6.91S107.63,76.18,107.63,76.18Z"/></svg>